<?xml version="1.0" encoding="UTF-8"?>
<!DOCTYPE svg PUBLIC "-//W3C//DTD SVG 1.1//EN" "http://www.w3.org/Graphics/SVG/1.1/DTD/svg11.dtd">
<!-- Creator: CorelDRAW -->
<svg xmlns="http://www.w3.org/2000/svg" xml:space="preserve" width="132.997mm" height="21.7562mm" version="1.1" style="shape-rendering:geometricPrecision; text-rendering:geometricPrecision; image-rendering:optimizeQuality; fill-rule:evenodd; clip-rule:evenodd"
viewBox="0 0 9030.78 1477.29"
 xmlns:xlink="http://www.w3.org/1999/xlink"
 xmlns:xodm="http://www.corel.com/coreldraw/odm/2003">
 <defs>
  <style type="text/css">
   <![CDATA[
    .str0 {stroke:#FF277E;stroke-width:5.17;stroke-miterlimit:22.9256}
    .fil0 {fill:#FF277E}
   ]]>
  </style>
 </defs>
 <g id="Capa_x0020_1">
  <metadata id="CorelCorpID_0Corel-Layer"/>
  <g id="_1956628555536">
   <path class="fil0" d="M6725.66 409.61c-23.01,0 -35.32,3.14 -53.37,9.87 -38.34,14.27 -79.75,23.25 -115.75,45.22l-52.73 39.26c-22.73,18.97 -67.31,101.74 -98.65,65.38 -12.6,-14.62 -0.89,-20.23 -5.72,-45.78l-16.51 -64.37c-0.69,-1.3 -3.64,-5.91 -4.45,-7.05l-17.3 -17.2c-13.89,-11.46 -23,-22.09 -38.34,-24.91 -9.89,-1.82 -50.95,-1.01 -63.11,-0.67 -15.75,0.45 -15.65,-1.31 -30.87,3.98 -18.33,6.38 -35.47,19.31 -44.56,35.51 -10.12,18.03 -21.99,30.73 -21.99,52.76l0 874.12c0,24.68 11.16,53.85 28.8,68.96 0.9,0.78 2.25,1.81 3.27,2.48l59.91 26.33c77.5,0 45.6,7.07 90.49,-12.98 9.44,-4.22 19.42,-6.12 25.51,-8.98 20.35,-9.56 22.56,-23.92 32.72,-42.04 26.05,-46.52 9.92,-486 11.88,-586.19 0.89,-45.47 43.46,-115.81 75.55,-148.71l5.8 -5.7c20.15,-17.91 42,-28.38 65.08,-38.41 24.19,-10.5 59.85,-19.6 89.62,-19.6 45.37,0 51.88,5.67 81.88,21.6 20.51,10.89 27.97,28.29 50.34,30.16 2.27,27.28 7.68,20.64 19.01,38.48 12.15,19.13 5.64,17.94 11.75,40.01 14.09,50.84 15.51,27.79 15.24,94.02l-0.02 431.33c0,207.69 24.49,132.9 28.74,184.02 45.91,1.03 45.31,23.01 63.23,23.01l68.98 0c15.77,0 8.62,-3.95 18.94,-9.81 38.41,-21.82 51.8,-13.49 70.12,-67.87 9.71,-28.84 2.96,-418.83 2.92,-480.14 -0.03,-57.32 -2.38,-98.85 18.84,-142.18 4.88,-9.96 8.88,-29.45 9.91,-41.85l17.25 0c0.79,-35.38 25.31,-51.05 49.11,-71.64 52.16,-45.11 134.43,-62.04 201.2,-40.75l58.21 33.77c0.88,0.79 2.11,1.96 2.96,2.78l36.62 55.38c3.06,9 3.42,18.61 5.81,28.69 8.03,33.78 20.4,25.77 20.02,71.98 -1.52,187.67 -5.97,376.46 -0.48,564.06 0.82,28.03 5.38,26.65 5.93,51.57l17.25 0c2.4,28.87 4.67,19.76 29.2,28.29 66.12,22.98 18.01,17.72 103.01,17.72l66.53 -31.2c4.12,-4.53 11.46,-20.02 17.44,-28.56 8.64,-12.32 13.75,-10.26 13.75,-32.25l0 -661.34c0,-87.34 -9.92,-67.43 -20.97,-105.54 -6.7,-23.1 -4.81,-31.07 -15.83,-47.42 -28.25,-41.94 -16.26,-40.04 -60.69,-83.06 -43.89,-42.49 -73.05,-43.23 -107.07,-59.65l-101.15 -16.96c-42.92,-3.2 -125.41,-4.58 -163.61,4.14 -22.62,5.16 -13.93,5.96 -26.79,13.44 -13.05,7.6 2.65,0.65 -15.66,7.33l-42.27 20.97c-16.36,9.83 -13.61,7.34 -27.63,18.36 -19.92,15.66 0.39,10.26 -27.65,12.6 -1.76,21.16 -1.85,21.24 -22.99,23 -0.65,28.99 -23.6,49.89 -40.25,74.76 -27.32,-13.11 -33.15,-4.53 -44.73,-35.76l-14.82 -25.44c-0.77,-0.9 -2.01,-2.07 -2.79,-2.96 -15.9,-18.21 -29.35,-39.12 -50.07,-53.42l-49.95 -30.54c-114.01,-33.39 -13.2,-24.4 -194.04,-24.4z"/>
   <path class="fil0 str0" d="M2696.01 582.12c-47.78,-25.29 -22.99,-21.65 -22.99,-40.25 0,-24.38 -0.02,2.28 -7.3,-21.45 -5.79,-18.85 -7.35,-42.3 -18.37,-62.14 -6.08,-10.93 -49.41,-48.68 -60.56,-48.68 -85.46,0 -70.58,-8.29 -112.87,19.35l-7.44 4.06c-4.31,2.58 -7.22,2.18 -13.74,9.26 -12.81,13.89 -26.9,40.4 -26.9,59.35l0 891.37 31.97 54.28c4.69,3.15 24.06,7.06 33.98,12.02 16.36,8.18 8.95,14.21 26.03,14.21 77.44,0 45.62,7.07 90.49,-12.98 9.36,-4.18 19.43,-6.14 25.47,-9.03 35.12,-16.83 -1.05,-24.73 39.25,-35.49 0,-46.85 5.81,-75.63 5.75,-126.52l-0.36 -460.42c0.47,-23.67 21.84,-81.56 34.22,-98.03 4.52,-6.02 -0.5,2.96 7.45,-9.8l17.41 -28.59c3.88,-4.56 12.75,-14.26 16.46,-18.05l75.85 -44.88c1.14,-0.58 2.49,-1.53 3.61,-2.15l24.15 -10.34c61.47,-12.34 126.81,-6.45 171.93,39.59l21.68 24.32c0.74,0.94 1.77,2.3 2.51,3.23l5.27 6.23c13.17,16.85 14.5,50.04 24.03,67.98 9.96,18.73 6.27,-4.53 9.75,24.75 6.14,51.65 0.22,436.18 -0.1,523.42 -0.18,47.26 5.76,69.99 5.76,115 20.04,5.35 21.04,5.3 22.99,28.75 61.75,1.38 8.64,23.01 126.47,23.01l58.23 -22.25c21.38,-10.44 12.34,-33.75 39.49,-41.01 0,-129.28 -15.35,-504.88 6.55,-608.78 4.81,-22.83 9.42,-14.88 15.79,-35.96 10.66,-35.3 18.83,-52.24 43.7,-77.05 9.91,-9.89 5.89,-6.8 13.7,-15.05 7.44,-7.86 28.15,-24.3 38.91,-30.08l33.05 -12.95c1.17,-0.57 2.58,-1.42 3.72,-2.02l69.82 -16.88c39.33,-3.71 102.48,14.7 128.52,42.31l27.7 35.55c21.34,26.67 10.35,44.49 25.62,77.88 16.45,35.95 12.56,84.14 12.56,125.46l0 402.55c0,61.91 -16.81,137.72 48.26,158.74 63.09,20.38 6.35,19.54 106.94,19.54 24.72,0 -0.43,0.95 15.37,-7.63 15.13,-8.22 0.75,-2.37 15.03,-7.96 14.12,-5.52 23.19,-4.11 33.27,-12.73 4.64,-3.97 34.06,-51.28 34.06,-57.93l0 -713.09c0,-28.77 -14.55,-36.5 -21.1,-59.4 -4.3,-15.05 0.21,-18.37 -5.43,-34.83 -10.52,-30.75 -2.76,-3.37 -13.55,-20.94 -0.66,-1.07 -1.55,-2.48 -2.16,-3.59l-12.53 -27.72c-0.67,-1.03 -1.71,-2.35 -2.42,-3.33 -0.71,-0.97 -1.83,-2.24 -2.57,-3.17l-96.98 -81.26c-13.92,-7.63 -15.21,-4.34 -31.4,-8.84 -38.45,-10.7 -39.8,-20.53 -91.65,-22.73 -11.67,-0.49 -7.44,-0.07 -16.66,-0.29 -5.78,-0.14 -5.35,0.17 -12.53,-0.45 -78.01,-6.8 -158.33,-1.26 -224.12,32.25l-43.5 25.5c-26.18,19.11 -27.79,38.98 -55.71,42.03 -0.72,32.16 -2.53,19.71 -17.91,39.59 -7.87,10.18 -14.97,24.17 -22.33,35.17 -16.05,-7.7 -22.54,-4.43 -34.46,-17.29 -24.89,-26.84 -2.59,-47.1 -103.35,-115.13l-48.48 -20.51c-21.08,-8.84 -26.24,-19.59 -55.15,-19.59 -223.12,0 -91.12,-0.19 -217.05,24.39 -22.14,4.32 -59.84,25.92 -77.08,37.9 -1,0.69 -2.32,1.74 -3.33,2.42l-6.97 4.53c-1.05,0.68 -2.57,1.45 -3.62,2.13 -41.19,26.79 -63.88,69.66 -100.09,101.14z"/>
   <path class="fil0" d="M1934.58 1396.09c5.83,-4.54 -1.91,-1.37 11.37,-11.62l82.68 -61.05c26.4,-24.57 72.1,-53.11 75.29,-91.45l17.25 0c1.09,-13.09 1.34,-15.89 4.75,-24 12.3,-29.37 14.31,-0.29 24.87,-44.12 7.22,-30.01 6.57,-14.55 15.58,-30.41l29.82 -113.94c1.7,-30.01 5.45,-48.92 5.45,-86.56 0,-185.2 -13.49,-126.42 -26.39,-180.63 -7.25,-30.47 3.38,-18.93 -12.95,-44.54 -11.55,-18.11 -8.86,-28.7 -21.61,-47.4l-52.22 -80.02c-11.23,-13.32 -11.42,-4.33 -13.3,-26.95 -31.82,-3.48 -4.4,2.59 -19.05,-9.7l-159.04 -111.18c-1.24,-0.58 -2.85,-1.09 -4.09,-1.66 -19.77,-9.31 -23.6,-16.93 -48.55,-20.44 -33.73,-4.74 -14.57,1.58 -40.78,-10.99 -35.13,-16.84 -109.02,-18.4 -147.78,-12.47 -33.58,5.13 -55.69,37.02 -62.1,47.19 -26.12,41.47 -4.42,95.33 -1.47,130.75 33.43,3.66 4.64,2.49 27.35,18.64l61.95 24.29c38.19,12.78 29.12,-9.7 101.57,24.91 14.18,6.78 19.24,5.39 32.57,13.42l10.02 7.23c0.98,0.71 2.32,1.75 3.29,2.46l77.37 72.12c21.1,24.55 34.11,51.36 47.31,79.18 14.9,31.4 16.51,15.81 18.08,62.42 4.6,135.88 6.73,129.25 -45.7,224.82 -5.57,10.14 1.34,1.55 -8.01,14.99 -18.31,26.31 -51.04,56.35 -78.22,71.27l-14.05 8.96c-16.66,11.73 -7.11,6.15 -26.41,13.83 -28.13,11.18 -29.54,20.19 -62.82,23.41 -24.55,2.37 -45.59,10.91 -69.58,10.91 -25.23,0 -44.52,-9.37 -69.46,-11.02 -65.1,-4.3 -37.1,-9.99 -64.8,-21.44 -29.1,-12.03 27.52,9.49 -8.98,-2.52 -9.25,-3.04 -2.8,0.88 -13.08,-4.17 -18.25,-8.96 -0.87,-0.58 -13.11,-9.89 -42.46,-32.29 -53.79,-27.61 -93.73,-78.77 -0.74,-0.94 -1.74,-2.32 -2.49,-3.26l-25 -44c-11.5,-21.96 -37.03,-88.83 -37.03,-112.48 0,-92.08 -4.66,-49.72 13.93,-101.08 5.55,-15.33 4.62,-30.08 8.87,-42.89 7.3,-22.05 -2.12,1.23 9.86,-18.89 8.55,-14.35 -0.6,3.9 8.27,-14.73 15.45,-32.43 37.59,-51.89 61.56,-82.18 18.03,-22.79 7.25,-3.8 15.35,-36.4 9.15,-36.85 7.08,-38.64 -1.77,-78.72 -6.25,-28.34 2.45,-12.28 -15.75,-30.24 -12.17,-12.01 -38.51,-37.67 -54.32,-37.67 -46.9,0 -57.65,-4.58 -95.29,19.69 -20.06,12.94 -40.65,24.93 -42.68,49.32l-17.25 0c-1.8,21.65 -4.93,18.65 -17.1,34.65 -0.73,0.96 -1.79,2.27 -2.49,3.26 -25.43,36.07 -46.21,77.94 -58.28,119.07 -5.51,18.79 -11.89,16.84 -17.55,40.82l-19.78 101.01c-12.53,64.04 9.91,107.74 16.44,167.98 3.78,34.85 -0.77,29.36 13.8,55.6 12.77,22.99 6.52,27.09 16.3,46.62l23.11 45.89c5.74,11.2 6.46,8.46 13.57,20.93l35.24 51.01c25.57,34.41 59.29,64.81 94,89.99 5.2,3.77 5.45,3.48 10.25,6.99l92.71 56.77c26.77,17.02 28.63,5.19 53.21,15.77 26.22,11.29 -5.11,1.95 21.02,13.47 15.35,6.77 11.16,3.58 30,4.5 165.46,8.07 22.42,16.13 242.23,0.37 72.72,-5.21 34.58,-23.59 108.63,-23.59 24.11,-45.58 18.86,-7.88 49.09,-31.4z"/>
   <path class="fil0" d="M9030.78 1392.98l0 -80.51c-29.37,-2.44 -23.77,-6.74 -31.31,-31.93l-29.67 -62.33c-21.22,-28.36 -29.69,-49.62 -44.08,-82.43 -0.54,-1.25 -1.13,-2.82 -1.73,-4.01l-62.25 -116c-10.8,-24.26 0.02,-14.3 -18.02,-39.48l-57.33 -109.42c-0.57,-1.28 -0.94,-2.95 -1.49,-4.26l-131.25 -259.75c-29.82,-41.69 -44.73,-105.59 -78.93,-145.32 -0.77,-0.9 -1.89,-2.19 -2.66,-3.1l-32.1 -31.12c-22.42,-17.32 -75.76,-19.58 -103.84,-10.53 -27.34,8.81 -2.83,0.26 -18.29,10.45 -52.74,34.75 -27.81,22.94 -62.78,80.97l-6.69 10.56c-15.72,29.88 -23.61,58.12 -41.1,85.4l-8.94 14.06c-0.58,1.22 -1.16,2.78 -1.7,4.05 -19.75,46.47 -46.87,86.56 -69.08,132.17l-38.24 83.11c-15.53,23.13 -10.01,25.46 -21.7,46.7l-120.66 241.58c-0.65,1.05 -1.72,2.34 -2.4,3.35l-56.63 98.62c-0.56,1.27 -1.07,2.85 -1.55,4.19l-46.79 114.88c-2.27,15.64 19.9,69.55 32.35,79.99 6.36,5.34 10.25,6.1 17.78,10.97 5.72,3.7 13.56,10.1 16.98,11.77 26.88,13.2 513.86,4.87 569.97,4.87 5,-18.73 -0.16,-9.11 15.58,-18.92 33.37,-20.77 15.96,-20.66 39.17,-47.07 27.53,-31.32 -0.98,-58.23 -13.08,-84.97 -3.36,-7.42 -2.52,-11.84 -7.18,-21.57 -29.99,-16.53 25.33,10.15 -7.72,-2.51l-6.04 -2.29c-64.88,-31.43 1.25,-23.96 -141.45,-23.96 -65.15,0 -130.3,0 -195.44,0 -12.87,-19.23 -14.79,-6.89 -12.75,-25.23 2.59,-23.36 17.26,-46.1 27,-64.02l79.01 -156.74c13.17,-34.15 38.62,-70.32 52.04,-103.21 5.24,-12.83 -1.11,0.14 8.3,-14.69 10.02,-15.78 -0.27,5.42 8.74,-14.26l38.85 -87.65 40.24 0c5.45,11.37 6.45,20.04 10.26,29.99l36.68 66.82c11.87,18.8 4.72,11.43 11.46,28.79 3.92,10.09 2.57,6.43 5.76,11.48l42.13 84.36c11.77,25.96 13.6,16.94 23.89,45.11l134.83 261.92c18.99,31.57 25.8,71.15 47.12,96.62 3.32,3.97 4.45,5.43 8.09,9.16 0.83,0.85 2,2.08 2.85,2.91l12.5 10.5c0.89,0.78 2.18,1.89 3.06,2.68l5.79 5.71c0.9,0.77 1.99,2.08 2.94,2.81 33.62,25.63 80.61,8.22 123.99,8.22 4.62,-17.29 0.21,-6.59 10.72,-18.03 16.45,-17.91 16.09,-32.33 46.76,-39.48z"/>
   <path class="fil0 str0" d="M5653.26 746.34c-8.45,-14.38 -3.75,-8.42 -8.43,-20.32l-24.51 -50.24c-4.26,-10.01 -0.45,-2.37 -5.85,-11.39 -0.88,-1.48 -3.85,-5.29 -4.77,-6.74 -3.55,-5.58 -4.09,-5.56 -8.3,-14.7l-69.63 -137.37c-3.37,-7.5 -3.46,-13.57 -7.21,-21.54l-24.89 -38.36c-0.71,-0.99 -1.64,-2.42 -2.4,-3.34 -26.91,-32.38 -85.6,-44.51 -124.41,-28.93 -16.64,6.68 -2.77,1.04 -17.24,11.51 -7.34,5.31 -7.67,5.02 -13.68,9.32 -20.55,14.73 -41.88,49.53 -41.88,73.11 0,44.85 46.17,109.04 66.43,152.07l156.28 320.97c0.63,1.07 1.7,2.36 2.38,3.37 2.53,3.75 4.82,3.9 10,13l77.98 163.53c9.57,24.84 33.51,33.6 19.59,64.98 -10.4,23.44 -29.16,12.44 -68.05,12.33 -126.49,-0.33 -253.06,0.1 -379.57,0.1 -7.65,-11.43 -10.46,-15.93 -17.25,-28.75l9.47 -13.53c0.72,-0.94 1.95,-2.13 2.68,-3.08l84.25 -163c6.7,-17.36 -1.3,-4.13 9.03,-19.72l18.25 -39.26c13.79,-33.62 10.78,5.23 20.54,-36.96 6.27,-27.11 10.35,-80.07 -3.86,-106.38 -18.81,-34.81 -79.35,-67.57 -117.35,-55.13l-61 53.99 -41.32 67.92c-2.76,5.81 -5.24,14.99 -8.17,20.59l-31.74 54.5c-17.06,25.8 -6.23,18.66 -16.35,41.16 -6.7,14.91 -3.93,4.17 -11.96,16.79l-135.89 272.36c-27.84,48.05 -15.52,102.82 26.46,138.06l20.91 13.59c23.62,8.71 856.31,11.98 927.95,1.7 41.37,-5.93 17.05,3.91 41.33,-16.17 27.67,-22.88 37.07,-29.93 37.07,-77.92 0,-60.61 -8.87,-47.64 -24.46,-84.8 -9.76,-23.28 1.61,-14 -13.72,-38.03l-9.35 -13.65c-0.6,-1.2 -1.22,-2.74 -1.76,-3.99l-48.71 -95.04c-0.77,-1.59 -2.59,-6.55 -3.32,-8.18l-114.37 -224.87c-4.26,-10.17 -2.04,-10.98 -6.51,-22.24 -8.98,-22.69 -8,-8.68 -17.43,-28.57l-8.07 -20.68c-10.9,-20.99 -8.32,-4 -17.95,-33.79l-19.22 -38.28z"/>
   <path class="fil0" d="M-0 955.92l0 17.25c11.16,2.96 8.9,1.06 17.25,5.75 9.02,38.77 8.1,82.72 13.74,124.27 7.75,57.04 43.97,137.77 82.04,182.46 41.18,48.35 26.56,46.29 101.91,99.33l73.28 41.7c55.34,15.52 27.19,21.71 73.69,24.06 58.97,2.98 79.28,17.76 110.02,22.17 22.22,3.18 72.57,1.04 97.46,0.89l153.12 -25.09c20.47,-6.63 8.07,-14.21 47.57,-21.43 22.71,-4.15 6.68,1.58 20.82,-7.92l29.35 -16.64c1.17,-0.59 2.73,-1.26 3.84,-1.91 29,-17.06 51.04,-44.43 75.62,-68.12 6.12,-5.91 17.62,-18.04 21.8,-24.19 14.35,-21.13 25.59,-35.51 31.72,-60.27 13.09,-52.84 27.62,-60.62 0.09,-113.11 -8.07,-15.39 -19.83,-24.08 -35.24,-33.77 -7.2,-4.53 -14.14,-9.87 -16.91,-11.46 -46.31,-26.47 -105.7,3.87 -135.57,39.63l-41.37 56.37c-53.06,60.22 -118.3,90.38 -201.23,86.45 -32.59,-1.54 -83.4,-16.55 -109.32,-34.41l-13.52 -9.48c-8.42,-5.41 -8.92,-4.71 -17.32,-11.43 -2.6,-2.08 -7.68,-6.93 -12.15,-10.85 -8.16,-7.16 -3.24,-1.82 -12.24,-10.76 -24.83,-24.63 -45.77,-56.2 -54.3,-89.44 -19.02,-74.13 -22.47,16.02 -22.48,-173.05 0,-111.87 -0.68,-76.4 24.37,-165.39 6.27,-22.25 9.5,-16.55 18.15,-33.6 0.6,-1.19 1.18,-2.78 1.75,-4 0.75,-1.6 2.53,-6.61 3.29,-8.22l29.9 -44.85c5.81,-7.11 19.11,-17.05 27.38,-24.36 14.5,-12.79 11.94,-9.28 26.96,-19.04 12.51,-8.13 13.28,-12.83 27.58,-18.42 14.05,-5.49 6.68,-1.22 18.65,-4.35 1.57,-0.41 3.18,-0.6 4.69,-1.06 41.43,-12.52 42.34,-28.36 126.75,-15.48l85.2 35.93c5.19,4.39 9.05,6.71 13.07,9.93l45.22 46.77c12.2,14.9 10.32,15.09 20.95,30.79 36.11,53.38 74.88,53.38 139.93,41.57 1.09,-0.2 16.41,-3.56 18.56,-4.45 34.79,-14.28 63.84,-71.53 57.1,-108.45l-45.94 -98.38c-4.66,-7.09 -17.04,-23.21 -22.65,-29.1 -17.44,-18.31 -37.88,-27.51 -61.44,-41.97 -1.03,-0.64 -2.43,-1.58 -3.44,-2.23 -0.99,-0.65 -2.32,-1.68 -3.3,-2.34l-48.53 -26.5c-19.24,-11.12 -54.6,-14.21 -74.05,-23.66 -31.94,-15.52 -124.32,-18.23 -171.53,-18.33 -40.17,-0.08 -54.86,5.89 -91.94,5.83 -52.07,-0.08 -42.93,6.13 -78.86,18.87l-71.96 25.77c-28.24,10.07 -56.27,24.35 -77.65,43.08l-36.77 32.23c-0.93,0.75 -2.34,1.72 -3.28,2.47l-28.78 28.71c-21.17,28.76 -62.06,77.9 -71.01,107.24l-43.69 105.8c-6.99,25.14 -7.59,60.25 -7.44,90.32 0.2,40.64 -8.99,53.97 -11.66,86.1 -7.75,4.35 -6.36,3.14 -17.25,5.75z"/>
   <path class="fil0" d="M4857.42 179.57c0,-33.37 7.4,-51.08 2.86,-83.1 -12.41,-87.52 -20.77,-19.98 -25.85,-66.42 -31.34,-2.61 -27.84,-8.79 -45.47,-17.79l-46.72 -10.49c-28.14,-2.35 -86.19,-2.3 -114.5,-0.22 -49.67,3.65 -49.85,11.95 -66.94,19.29 -9.59,4.11 -11.83,3.4 -22.94,5.81 -3.94,0.86 -18.05,4.6 -21.97,6.77 -9.53,5.27 -6.18,4.8 -9.75,7.5l-6.34 5.16c-47.06,32.29 -58.59,33.4 -87.61,90.62 -9.72,19.15 -6.21,8.71 -11.59,17.17 -11.79,18.52 -3.71,-0.3 -8.43,20.32l-11.85 160.61c0.24,43.15 -0.12,62.07 -17.26,97.8 -30.87,0 -73.46,-2.44 -102.93,0.55 -14.11,1.43 -28.1,5.3 -39.51,12.24 -30.39,18.48 -24.27,20.13 -24.27,27.47 0,105.21 -6.65,80.78 23.39,97.36 48.58,26.82 45.2,16.66 114.8,17.42 28.36,0.31 29.87,4.18 51.5,5.98 13.18,56.6 6.68,611.56 5.46,753.64 -0.58,67.43 19.27,31.97 23.28,80.22 31.43,2.61 22.56,9 39.65,17.84 36.23,18.73 105.01,5.16 138.55,5.16 5.97,-22.37 11.31,-11.22 34.6,-40.15 14.1,-17.51 4.22,4.86 12.28,-22.21 10.83,-36.4 5.6,-671.64 4.54,-748.82 -0.45,-32.76 -2.6,-45.41 24.15,-50.59 15.52,-3 50.79,-0.48 68.4,-0.58 51.98,-0.26 67.53,-22.22 114.71,-23.26 2.24,-26.96 11.5,-28.44 11.5,-57.51 0,-80.42 -36.77,-72.97 -80.36,-74.88 -28.82,-1.26 -38.3,-8.75 -74.26,-4.54 -32.47,3.8 -59,-4.52 -63.85,-41.32 -5.02,-38.15 -5.59,-131.95 27.51,-168.06 27.04,-29.5 92.31,-7.4 134.09,-15.1 33.98,-6.25 9.42,0.52 27.92,-12.59l23.2 -11.3z"/>
  </g>
 </g>
</svg>
